<svg xmlns="http://www.w3.org/2000/svg" width="64" height="64">
   <g id="Group_23066" data-name="Group 23066" transform="translate(0 0.345)">
        <path id="Path_33571" data-name="Path 33571" d="M54.284,7.124,40.152,17.544,65.259,36.137A26.516,26.516,0,0,0,54.333,7.084l-.051.037Z" transform="translate(-13.185 -2.671)" fill="#1788dd"/>
        <path id="Path_33572" data-name="Path 33572" d="M61.2,7.041c-.046-.031-.1-.057-.143-.088l.092.125Z" transform="translate(-20.049 -2.628)" fill="#e73e8f"/>
        <path id="Path_33573" data-name="Path 33573" d="M44.953,4.359A26.442,26.442,0,0,0,14.4,6.551l5.646,16.171Z" transform="translate(-4.729 -0.513)" fill="#e73e8f"/>
        <path id="Path_33574" data-name="Path 33574" d="M42.69,65.4a26.518,26.518,0,0,0,23.1-18.416L52.271,36.961Z" transform="translate(-14.019 -12.482)" fill="#e3e100"/>
        <path id="Path_33575" data-name="Path 33575" d="M3.369,55.931A26.5,26.5,0,0,0,27.608,71.708q.544,0,1.083-.023L34.007,55.91Z" transform="translate(-1.106 -18.705)" fill="#00aa9f"/>
        <path id="Path_33576" data-name="Path 33576" d="M8.853,10.557A26.477,26.477,0,0,0,1.847,40.031L19,39.978Z" transform="translate(0 -3.811)" fill="#0000d4"/>
        <path id="Path_33577" data-name="Path 33577" d="M29,55.86l.011.033h.1l.1-.033Z" transform="translate(-9.522 -18.688)" fill="#fff"/>
        <path id="Path_33578" data-name="Path 33578" d="M29.026,55.941l.091-.032h-.1Z" transform="translate(-9.528 -18.704)" fill="#fff"/>
        <path id="Path_33579" data-name="Path 33579" d="M52.232,36.946,42.614,65.4l.051,0,9.581-28.435Z" transform="translate(-13.994 -12.477)" fill="#fff"/>
        <path id="Path_33580" data-name="Path 33580" d="M3.354,55.91l.01.021,6.75-.021Z" transform="translate(-1.101 -18.705)" fill="#fff"/>
        <path id="Path_33581" data-name="Path 33581" d="M56.949,36.859l.069-.2L57,36.65l-.067.2Z" transform="translate(-18.697 -12.38)" fill="#fff"/>
   </g>
</svg>